name D:\school\WTK\thesis\model\3dpredictsim\Results\MidTarsalJoint\Fal_s1_bCst_PF_Natali2010_ls150_MT_nl_k800_10_MTP_T5_ig24.mot
datacolumns 128
datarows 4
range 0.00000000 0.03456649
endheader
time	pelvis_tilt	pelvis_list	pelvis_rotation	pelvis_tx	pelvis_ty	pelvis_tz	hip_flexion_l	hip_adduction_l	hip_rotation_l	hip_flexion_r	hip_adduction_r	hip_rotation_r	knee_angle_l	knee_angle_r	ankle_angle_l	ankle_angle_r	subtalar_angle_l	subtalar_angle_r	mtj_angle_l	mtj_angle_r	mtp_angle_l	mtp_angle_r	lumbar_extension	lumbar_bending	lumbar_rotation	arm_flex_l	arm_add_l	arm_rot_l	arm_flex_r	arm_add_r	arm_rot_r	elbow_flex_l	elbow_flex_r	pro_sup_l	pro_sup_r	glut_med1_l/activation	glut_med2_l/activation	glut_med3_l/activation	glut_min1_l/activation	glut_min2_l/activation	glut_min3_l/activation	semimem_l/activation	semiten_l/activation	bifemlh_l/activation	bifemsh_l/activation	sar_l/activation	add_long_l/activation	add_brev_l/activation	add_mag1_l/activation	add_mag2_l/activation	add_mag3_l/activation	tfl_l/activation	pect_l/activation	grac_l/activation	glut_max1_l/activation	glut_max2_l/activation	glut_max3_l/activation	iliacus_l/activation	psoas_l/activation	quad_fem_l/activation	gem_l/activation	peri_l/activation	rect_fem_l/activation	vas_med_l/activation	vas_int_l/activation	vas_lat_l/activation	med_gas_l/activation	lat_gas_l/activation	soleus_l/activation	tib_post_l/activation	flex_dig_l/activation	flex_hal_l/activation	tib_ant_l/activation	per_brev_l/activation	per_long_l/activation	per_tert_l/activation	ext_dig_l/activation	ext_hal_l/activation	ercspn_l/activation	intobl_l/activation	extobl_l/activation	glut_med1_r/activation	glut_med2_r/activation	glut_med3_r/activation	glut_min1_r/activation	glut_min2_r/activation	glut_min3_r/activation	semimem_r/activation	semiten_r/activation	bifemlh_r/activation	bifemsh_r/activation	sar_r/activation	add_long_r/activation	add_brev_r/activation	add_mag1_r/activation	add_mag2_r/activation	add_mag3_r/activation	tfl_r/activation	pect_r/activation	grac_r/activation	glut_max1_r/activation	glut_max2_r/activation	glut_max3_r/activation	iliacus_r/activation	psoas_r/activation	quad_fem_r/activation	gem_r/activation	peri_r/activation	rect_fem_r/activation	vas_med_r/activation	vas_int_r/activation	vas_lat_r/activation	med_gas_r/activation	lat_gas_r/activation	soleus_r/activation	tib_post_r/activation	flex_dig_r/activation	flex_hal_r/activation	tib_ant_r/activation	per_brev_r/activation	per_long_r/activation	per_tert_r/activation	ext_dig_r/activation	ext_hal_r/activation	ercspn_r/activation	intobl_r/activation	extobl_r/activation	
          0.00000000	         -2.93017645	         -2.03295483	          5.66432583	          0.00000000	          0.91884438	         -0.00264997	        -16.94726932	         -1.04264437	          6.62782250	         29.29457387	          3.15311518	         -3.40134867	         -8.35738465	        -10.36937982	         -1.13668418	          6.47011804	         10.20998393	         -3.54647447	          1.66720166	         -1.11388682	         19.06038333	          3.22250438	         -1.97598113	          0.28000977	         -2.18828558	          4.77851068	        -13.45801347	         16.07535392	         -5.70539012	        -13.46218232	          6.35111469	         36.39041853	         16.85209791	         86.51662706	         86.51662706	          0.24814651	          0.10095486	          0.07067998	          0.28569454	          0.18976773	          0.10185889	          0.05000107	          0.05000017	          0.05000008	          0.05323822	          0.10931439	          0.11593403	          0.11410291	          0.05000067	          0.05000102	          0.05000028	          0.32003777	          0.08895830	          0.05001397	          0.05000044	          0.05000027	          0.05000026	          0.39243424	          0.66020695	          0.05000004	          0.05000017	          0.05000057	          0.28302772	          0.05000009	          0.05000010	          0.05000009	          0.26364833	          0.36023584	          0.31096189	          0.27429401	          0.27214690	          0.35968974	          0.05000001	          0.05960190	          0.13111848	          0.05000013	          0.05000002	          0.05000011	          0.05000001	          0.05000004	          0.06906808	          0.05960179	          0.05960181	          0.05000005	          0.05960186	          0.05960185	          0.05960122	          0.21333931	          0.09180357	          0.14377255	          0.05960276	          0.05000010	          0.17138118	          0.32207908	          0.10664428	          0.24731472	          0.12810572	          0.05000009	          0.05376115	          0.15223772	          0.05000013	          0.05000013	          0.17361977	          0.05960189	          0.05472997	          0.35196068	          0.30146162	          0.13346888	          0.05000013	          0.10166625	          0.10168042	          0.09091026	          0.07199576	          0.07484577	          0.06205225	          0.05000004	          0.05960354	          0.05000034	          0.51638377	          0.23875739	          0.16228012	          0.22385268	          0.47941046	          0.25537655	          0.05926551	          0.11300234	          0.09477321	
          0.01152216	         -2.92677668	         -2.12861548	          5.93747853	          0.01755496	          0.91789155	         -0.00245718	        -16.66440837	         -1.35398557	          6.43276530	         28.69106993	          3.56648602	         -3.15081483	        -10.56648698	        -10.94238401	         -1.96075306	          5.91129890	         11.24874379	         -3.93234206	          1.21978440	         -1.23787574	         20.46200979	          3.09092809	         -1.75635276	          0.49596052	         -2.26104157	          4.44113753	        -13.47160435	         16.38569011	         -6.66052725	        -13.45999519	          6.10587004	         37.64633848	         16.52684161	         86.51662706	         86.51662706	          0.20817034	          0.08469114	          0.05960189	          0.23966944	          0.15919634	          0.08544953	          0.05000193	          0.05000054	          0.05000246	          0.05000006	          0.09170400	          0.21338058	          0.10624188	          0.16041288	          0.05960469	          0.05960528	          0.26848004	          0.07462747	          0.05000061	          0.05956507	          0.05960192	          0.05960264	          0.32921343	          0.59977346	          0.05960342	          0.05960471	          0.05000102	          0.25004431	          0.13651336	          0.12722447	          0.06079987	          0.22117480	          0.30220215	          0.26086618	          0.23010553	          0.22830444	          0.30174419	          0.05000001	          0.05000014	          0.13913333	          0.05000005	          0.05000001	          0.05000009	          0.07128101	          0.07104750	          0.06264798	          0.05000000	          0.05000003	          0.12335158	          0.05000006	          0.05000006	          0.05000005	          0.17897059	          0.07701415	          0.12061094	          0.05000094	          0.05955650	          0.14377187	          0.35394652	          0.37032288	          0.25736642	          0.13980874	          0.05000022	          0.08225179	          0.17775965	          0.07000067	          0.12026681	          0.16989652	          0.05000013	          0.05000033	          0.59455293	          0.25289642	          0.11196720	          0.05960177	          0.08528834	          0.08530050	          0.07626511	          0.07102845	          0.07104743	          0.06421846	          0.05960175	          0.05000160	          0.05941670	          0.50162900	          0.26815692	          0.20998622	          0.18779029	          0.44668202	          0.21423564	          0.05000000	          0.09479776	          0.07950532	
          0.02304433	         -2.91845920	         -2.23196034	          6.17658886	          0.03539558	          0.91690214	         -0.00228886	        -16.29760909	         -1.66350188	          6.22508147	         27.94981990	          3.85326847	         -2.87297681	        -12.90506399	        -11.57177761	         -3.01013720	          5.43212018	         12.21813461	         -4.32926187	          0.77196638	         -1.46800554	         21.75501652	          3.08956830	         -1.51555255	          0.72612284	         -2.32125468	          4.02497385	        -13.48172255	         16.61496239	         -7.63165321	        -13.46993949	          5.93783710	         38.88505069	         16.23280534	         86.51662706	         86.51662706	          0.31165664	          0.07104750	          0.05000018	          0.28781362	          0.13355002	          0.07168372	          0.05000161	          0.05000014	          0.05000010	          0.05000047	          0.07693082	          0.17900523	          0.08912692	          0.13457056	          0.05000268	          0.05000299	          0.31996408	          0.09914144	          0.05047506	          0.05000082	          0.05000070	          0.05000088	          0.27617746	          0.55312403	          0.05000142	          0.05000266	          0.05000083	          0.25737277	          0.11452120	          0.10672874	          0.05100508	          0.18554372	          0.25351764	          0.21884085	          0.19303573	          0.19152485	          0.25313350	          0.05000005	          0.11942527	          0.15650278	          0.05000008	          0.07710567	          0.05000010	          0.06971789	          0.05960181	          0.05255545	          0.26162123	          0.28397531	          0.31461669	          0.46271319	          0.30752176	          0.22052033	          0.15099589	          0.07714749	          0.10653123	          0.06404777	          0.05000040	          0.12061036	          0.29692604	          0.31066422	          0.21590506	          0.15296924	          0.05000022	          0.06900133	          0.14912286	          0.16031257	          0.15286720	          0.14597186	          0.05075104	          0.05000028	          0.49877095	          0.21215507	          0.22410535	          0.05000005	          0.07154853	          0.07155873	          0.06397892	          0.05958585	          0.05960178	          0.05456881	          0.05000007	          0.05000018	          0.05000028	          0.57076797	          0.35221945	          0.17615775	          0.38091935	          0.51651898	          0.19860445	          0.06628299	          0.11799647	          0.06669709	
          0.03456649	         -2.90757053	         -2.32370576	          6.37650257	          0.05329288	          0.91590733	         -0.00208665	        -15.83236253	         -1.95365346	          6.03350960	         27.16118592	          4.10250615	         -2.60379147	        -15.37214694	        -12.11983870	         -4.15708879	          4.89087080	         13.12761081	         -4.72557107	          0.20888274	         -1.39592203	         22.79647672	          3.11845784	         -1.27828574	          0.94771978	         -2.37128621	          3.57163739	        -13.50072815	         16.79198634	         -8.56657548	        -13.48052551	          5.84798084	         40.07948738	         15.93929800	         86.51662706	         86.51662706	          0.26144911	          0.05960184	          0.05000015	          0.24144726	          0.11203526	          0.06013556	          0.05000117	          0.05000011	          0.05000013	          0.05000005	          0.06453742	          0.20765473	          0.20418415	          0.11289183	          0.05186614	          0.12035697	          0.26841880	          0.08317038	          0.05000051	          0.05000330	          0.05000199	          0.05000186	          0.23168551	          0.48627970	          0.05000040	          0.05000099	          0.05000011	          0.21591033	          0.10096341	          0.10383458	          0.10095518	          0.15565278	          0.21267615	          0.18358577	          0.16193785	          0.16067042	          0.21235395	          0.14256899	          0.10018944	          0.15152126	          0.18771114	          0.17981993	          0.07045908	          0.08107149	          0.05000002	          0.05000001	          0.35972460	          0.37558996	          0.41562274	          0.38817052	          0.25798040	          0.24589323	          0.12667066	          0.09460230	          0.09350399	          0.05372989	          0.05000036	          0.10118014	          0.24909152	          0.26061660	          0.18314527	          0.17933828	          0.05000016	          0.05788552	          0.12509953	          0.25809516	          0.21207867	          0.18778021	          0.05000003	          0.05000003	          0.41841939	          0.17797711	          0.18800243	          0.05000004	          0.12278678	          0.12918559	          0.10398421	          0.05000001	          0.05000003	          0.05000000	          0.05000000	          0.05000006	          0.05000005	          0.64111482	          0.31233063	          0.16333824	          0.62893419	          0.57277645	          0.33210698	          0.08273303	          0.09898734	          0.05595225	
